<svg xmlns="http://www.w3.org/2000/svg" viewBox="0 0 1024 1024"><path d="M828.27,255.32a2.85,2.85,0,0,0-2.8-2.8c-19-.33-104.9,18.42-137.31,40.37l.21.26c.15.17.29.34.43.53l.52.52.3.49.48.61.35.45c.57.74,1.14,1.5,1.7,2.27.3.4.63.87,1,1.36s.66.94,1,1.4l.24.35c.19.28.36.53.53.81l.1.1.8,1.28c.59.9,1.15,1.83,1.7,2.76s1.2,2,1.72,3c.1.17.18.36.28.53l.15.26.44.84c1.48,2.74,2.87,5.69,4.17,8.76l.07.16c.15.35.26.64.36.91,1.16,2.8,2.21,5.72,3.13,8.66a110.17,110.17,0,0,1,4.06,18.32c.11.87.23,1.76.33,2.64A103.2,103.2,0,0,1,711,380.06l-.27,1.17a220.94,220.94,0,0,1-9.49,26.43,248.79,248.79,0,0,1-11.61,23.51A263.48,263.48,0,0,1,672.41,458a292.54,292.54,0,0,1-80.35,74.6C549,559.62,501.67,574,456.73,574q-9.75,0-19.34-.91h-.21A15.94,15.94,0,0,1,431.79,543c2.15-1.05,4.29-2.15,6.38-3.27l.3-.17,2.35-1.27c3.41-1.89,6.75-3.86,10.06-6-5.18-.4-10.43-.6-15.63-.6a206.89,206.89,0,0,0-85.55,18.45,209.29,209.29,0,0,0-85.56,70.64,478.74,478.74,0,0,0-3.26,56c0,42.71-1.26,82-.13,117.41a1.43,1.43,0,0,0,1.93,1.28,657.63,657.63,0,0,1,84.23-25A672.86,672.86,0,0,1,579.3,759.41c60.17,7.5,120.62,23,180.74,46.21a1.42,1.42,0,0,0,1.94-1.23c2.5-37.92,1.57-80.71,1.57-127.57,0-81.16-20.2-155.81-54-214.9a11.45,11.45,0,0,1,4.27-15.71c27.36-15.41,62.7-37.25,73.52-52.68C809.51,361.85,828.6,274.51,828.27,255.32ZM362,694.07a34.3,34.3,0,1,1,34.3-34.3A34.31,34.31,0,0,1,362,694.07Zm300.08,0a34.3,34.3,0,1,1,34.29-34.3A34.3,34.3,0,0,1,662,694.07Z"/><path d="M285.67,343.66a219.18,219.18,0,0,0-28.39,59,5.72,5.72,0,0,1-9.2,2.7,69.59,69.59,0,0,1-11.37-11.85c-22.22-31.68-41.31-119-41-138.21a2.85,2.85,0,0,1,2.8-2.8c17.5-.3,91.78,15.58,128.71,35.25a5.72,5.72,0,0,1,.87,9.47A221.34,221.34,0,0,0,285.67,343.66Z"/><path d="M352.59,795.56a626,626,0,0,0-89.22,27.3,1.42,1.42,0,0,0-.9,1.45c9,105.1,53.22,167.69,250.44,167.69C696.29,992,746,933.31,759.12,834.15a1.47,1.47,0,0,0-.9-1.54C590.23,766,448.18,773.92,352.59,795.56Zm292.54,93.87c-31.35,20.23-79.86,31.84-133.13,31.84s-101.8-11.61-133.13-31.84a12.86,12.86,0,0,1,13.94-21.61c26.89,17.37,71.45,27.73,119.19,27.73s92.3-10.36,119.19-27.73a12.86,12.86,0,0,1,13.94,21.61Z"/><path d="M428.57,279.37a5.65,5.65,0,0,1,5.19,6.57c-4.11,27.12-7.25,49.87-8.88,65.55q-.6,5.64-.93,10a5.68,5.68,0,0,1-4.53,5.13,260.45,260.45,0,0,0-25.21,6.67c-2.18.7-4.37,1.43-6.54,2.18a262.35,262.35,0,0,0-94.18,57.32c-.8.76-1.59,1.51-2.38,2.28q-8.06,7.83-15.36,16.28a1,1,0,0,1-1.75-.72,190.21,190.21,0,0,1,3.6-23.94A195.29,195.29,0,0,1,409,281.92c.92-.3,1.85-.59,2.78-.86a.09.09,0,0,1,.07,0l3.5-.83c.81-.16,1.64-.3,2.47-.41l1.41-.19,1.16-.13,1.47-.1,1.15-.07c.51,0,1,0,1.57,0h2.06C427.26,279.29,427.92,279.33,428.57,279.37Z"/><path d="M502.66,472.53a5.71,5.71,0,0,1,3.88,9c-.64.91-1.31,1.81-2,2.68-1,1.28-2.09,2.53-3.2,3.71a59.71,59.71,0,0,1-43.55,19c-1.36,0-2.72-.06-4.09-.15h-.23q-9.15-.7-18.22-.72c-6.31,0-12.59.26-18.8.76-4,.33-8,.76-12,1.3-2.35.3-4.71.66-7.06,1-2.68.45-5.35.95-8,1.48-.5.08-1,.19-1.47.29-1.28.26-2.56.53-3.84.83-1.69.39-3.37.78-5.08,1.21q-5.28,1.3-10.46,2.85c-.44.15-.9.28-1.36.42-1.73.53-3.44,1.07-5.17,1.64-1.94.64-3.87,1.3-5.8,2s-3.85,1.42-5.75,2.15-3.78,1.51-5.67,2.3-3.76,1.6-5.61,2.44a235,235,0,0,0-98.56,83,1.14,1.14,0,0,1-.2.23,1,1,0,0,1-.24.17,1.09,1.09,0,0,1-.53.13,1.11,1.11,0,0,1-.43-.09.5.5,0,0,1-.21-.1.51.51,0,0,1-.18-.14,1.11,1.11,0,0,1-.37-.93A235.42,235.42,0,0,1,275.18,495q5.85-9.14,12.48-17.61a232,232,0,0,1,23.53-25.93c1-1,2.1-2,3.16-2.95a230.81,230.81,0,0,1,19.42-15.93,235.5,235.5,0,0,1,73.15-36.31q6.43-1.9,13-3.42a5.73,5.73,0,0,1,6.89,4.28c.59,2.46,1.25,4.89,2,7.27C440.06,441.07,468.48,468.23,502.66,472.53Z"/><path d="M457.79,506.85c-1.36,0-2.72-.05-4.09-.15C455.07,506.79,456.43,506.85,457.79,506.85Z"/><path d="M453.7,506.7c1.37.1,2.73.15,4.09.15C456.43,506.85,455.07,506.79,453.7,506.7Z"/><path d="M523.46,41.44c-2.23-12.59-20.29-12.59-22.52,0-14.6,82.47-28.2,161.94-37.77,222.49-1.6,10.1-3.08,19.67-4.44,28.63-2.83,18.62-5.1,34.64-6.7,47.43-1.15,9.07-1.95,16.5-2.36,22.08-.23,3-.34,5.44-.34,7.31,0,.84,0,1.67,0,2.52a95.53,95.53,0,0,0,1.74,15.87,89.52,89.52,0,0,0,2.71,10.55c9.28,28.73,31.95,49.1,58.39,49.1a47.83,47.83,0,0,0,5.23-.28A50.34,50.34,0,0,0,527.71,445a11.54,11.54,0,0,0,6.91-5.91c.69-1.4,1.35-2.8,2-4.22a64.31,64.31,0,0,0,3.59-9.9c2.24-8.13,3.31-17.59,3.37-29.39,0-8-.4-16.48-.81-24.68l-.09-1.6c-.14-2.74-.29-5.52-.4-8.27l0-1.1c0-1-.09-2.09-.13-3.18-.15-4-.32-10.07-.19-16.44,0-1.15.06-2.25.1-3.36l.07-1c.13-1.18.29-2.36.48-3.53a95.65,95.65,0,0,1,3.25-14.39c.67-2.17,1.4-4.26,2.18-6.23l.32-.83.09-.21,0-.12,0-.07.12-.28a86.94,86.94,0,0,1,12.67-21.74,11.53,11.53,0,0,0,2.42-8.94C554.09,217.53,539.37,131.27,523.46,41.44Z"/><path d="M685.86,374.71a196.67,196.67,0,0,1-8.22,22.78q-2.57,6-5.48,11.77A235.28,235.28,0,0,1,654,439.54c-39.86,56.65-104,97.22-168.64,106.68a2.86,2.86,0,0,1-2.16-5.1,258.19,258.19,0,0,0,50.12-50.82c.16-.22.33-.43.5-.67l.82-1.12a254.22,254.22,0,0,0,16.79-26.12q4.63-8.25,8.53-16.73a86.74,86.74,0,0,0,3.8-9.7v0c3.19-9.73,4.92-20.55,5.39-33.55q.12-3.24.14-6.69c0-8.7-.41-17.55-.84-26.09l-.09-1.63c-.14-2.66-.27-5.34-.38-8.06l0-1c0-1-.08-2-.13-3-.12-3.72-.3-9.3-.18-15,0-.8,0-1.59.07-2.4v0a72.45,72.45,0,0,1,2.69-12.73c0-.07,0-.14.07-.21.47-1.53,1-3,1.5-4.3l.26-.66.21-.51a61.27,61.27,0,0,1,8.17-14.39,53.68,53.68,0,0,1,11.33-11.06c.71-.5,1.42-1,2.13-1.45a49.77,49.77,0,0,1,29.44-7.84l.31,0a53.06,53.06,0,0,1,10.49,1.61c1.36.37,2.53.72,3.56,1.06l.36.13c.7.23,1.4.48,2.21.78.35.15.7.27,1.1.45s.65.25,1,.4l1.11.48c.84.39,1.73.8,2.61,1.25l.35.17.86.44c1.48.79,2.94,1.64,4.31,2.51A70.91,70.91,0,0,1,663.5,304l.75.75.3.32.39.4,1.13,1.21c.37.4.74.82,1.11,1.23l.37.45c.29.32.56.64.83,1l.29.49.77.8c.1.13.2.27.32.4l.12.17a.6.6,0,0,0,.08.08c.44.59.9,1.18,1.37,1.83.27.38.54.75.84,1.19s.47.67.7,1l.11.16c.16.23.3.46.45.69l1.36,2.17.11.11c.16.28.33.55.49.82.45.76.87,1.48,1.25,2.17l.76,1.43c1.09,2,2.11,4.19,3.1,6.52l.32.77c.88,2.17,1.71,4.43,2.42,6.71a83.78,83.78,0,0,1,3.11,14c.1.67.18,1.34.24,2A77.61,77.61,0,0,1,685.86,374.71Z"/></svg>